<!DOCTYPE svg PUBLIC "-//W3C//DTD SVG 1.1//EN" "http://www.w3.org/Graphics/SVG/1.1/DTD/svg11.dtd">
<svg 
  viewBox="0 0 32 32" 
  version="1.0" 
  xmlns="http://www.w3.org/2000/svg" 
  preserveAspectRatio="xMidYMid meet"
  xmlns:xlink="http://www.w3.org/1999/xlink"
  xml:space="preserve"
>
  <path d="M 16 4 C 9.3844277 4 4 9.3844277 4 16 C 4 22.615572 9.3844277 28 16 28 C 22.615572 28 28 22.615572 28 16 C 28 9.3844277 22.615572 4 16 4 z M 16 6 C 21.534692 6 26 10.465308 26 16 C 26 21.534692 21.534692 26 16 26 C 10.465308 26 6 21.534692 6 16 C 6 10.465308 10.465308 6 16 6 z M 16 8 C 14.895431 8 14 8.8954305 14 10 C 14 11.104569 14.895431 12 16 12 C 17.104569 12 18 11.104569 18 10 C 18 8.8954305 17.104569 8 16 8 z M 10.21875 12.03125 L 9.78125 13.96875 L 14 14.90625 L 14 18.96875 L 14 19 L 13.03125 23.8125 L 14.96875 24.1875 L 15.96875 19.1875 L 16 19.09375 L 16.03125 19.1875 L 17.03125 24.1875 L 18.96875 23.8125 L 18 19 L 18 18.96875 L 18 14.90625 L 22.21875 13.96875 L 21.78125 12.03125 L 17.5 13 L 17.4375 13 L 14.5625 13 L 14.5 13 L 10.21875 12.03125 z"></path>
</svg>